<svg xmlns="http://www.w3.org/2000/svg" viewBox="0 0 134.76 60.88"><defs><style>.cls-1{fill:#fff;}.cls-2{fill:#02b9f8;}</style></defs><title>logo</title><g id="Layer_2" data-name="Layer 2"><g id="dashboard"><g id="mockuo_logo" data-name="mockuo logo"><path class="cls-1" d="M15.63,41.49A3.6,3.6,0,0,1,12,45.12a8.4,8.4,0,0,1-6.48-3.21C3.74,39.59,3.86,37,3.86,34.18V3.57a3.6,3.6,0,0,1,7.2,0V35.85c0,.18-.06.35-.06.53s.06.36.06.54a1,1,0,0,0,.95,1A3.58,3.58,0,0,1,15.63,41.49Z"/><path class="cls-1" d="M33.83,45a14.92,14.92,0,1,1,15-14.86A14.94,14.94,0,0,1,33.83,45Zm0-22.53a7.61,7.61,0,1,0,7.61,7.61A7.59,7.59,0,0,0,33.83,22.47Z"/><path class="cls-1" d="M82.4,18.61V45.54a15.29,15.29,0,0,1-26.87,10,3.65,3.65,0,0,1,.41-5.11,3.54,3.54,0,0,1,5.11.36,7.89,7.89,0,0,0,6.07,2.73,8,8,0,0,0,8-8V42.92a14.87,14.87,0,1,1-7.55-27.64,14.42,14.42,0,0,1,7.73,2.2A3.72,3.72,0,0,1,78.77,15,3.65,3.65,0,0,1,82.4,18.61ZM75.14,30.14a7.58,7.58,0,1,0-7.55,7.61A7.58,7.58,0,0,0,75.14,30.14Z"/><path class="cls-1" d="M102.49,45a14.92,14.92,0,1,1,15-14.86A14.93,14.93,0,0,1,102.49,45Zm0-22.53a7.61,7.61,0,1,0,7.61,7.61A7.59,7.59,0,0,0,102.49,22.47Z"/><path class="cls-2" d="M126.33,45.18h-.48a3.67,3.67,0,0,1-3.62-3.8,3.79,3.79,0,0,1,3.62-3.93h.48A3.84,3.84,0,0,1,130,41.38,3.72,3.72,0,0,1,126.33,45.18Z"/><path class="cls-2" d="M32.69,34.14h-.48a3.67,3.67,0,0,1-3.62-3.8,3.79,3.79,0,0,1,3.62-3.93h.48a3.83,3.83,0,0,1,3.62,3.93A3.71,3.71,0,0,1,32.69,34.14Z"/><path class="cls-2" d="M69.48,34.14H69a3.68,3.68,0,0,1-3.63-3.8A3.8,3.8,0,0,1,69,26.41h.47a3.83,3.83,0,0,1,3.63,3.93A3.71,3.71,0,0,1,69.48,34.14Z"/><path class="cls-1" d="M2.18,51.43a4.06,4.06,0,0,1,1.22.16,2.31,2.31,0,0,1,.85.46,1.83,1.83,0,0,1,.51.72,2.58,2.58,0,0,1,.17.94,2.44,2.44,0,0,1-.18.95,2,2,0,0,1-.53.73,2.48,2.48,0,0,1-.86.49,3.81,3.81,0,0,1-1.18.17H1v2.76H0V51.43Zm0,3.82a2.15,2.15,0,0,0,.75-.11,1.36,1.36,0,0,0,.55-.32,1.17,1.17,0,0,0,.34-.48,1.61,1.61,0,0,0,.12-.63,1.42,1.42,0,0,0-.44-1.1,1.93,1.93,0,0,0-1.32-.39H1v3Z"/><path class="cls-1" d="M11.9,58.81H11a.44.44,0,0,1-.4-.21L8.7,56a.79.79,0,0,0-.19-.18.8.8,0,0,0-.31-.05H7.44v3.08h-1V51.43H8.53a4.33,4.33,0,0,1,1.21.14,2.2,2.2,0,0,1,.84.41,1.72,1.72,0,0,1,.5.64,2.34,2.34,0,0,1,.15.85,2.15,2.15,0,0,1-.12.73,1.79,1.79,0,0,1-.36.61,2,2,0,0,1-.57.47,2.85,2.85,0,0,1-.76.28,1.24,1.24,0,0,1,.33.32ZM8.49,55a2.5,2.5,0,0,0,.76-.1,1.5,1.5,0,0,0,.56-.3,1.28,1.28,0,0,0,.34-.46,1.64,1.64,0,0,0,.11-.6,1.16,1.16,0,0,0-.43-1,2.13,2.13,0,0,0-1.3-.33H7.44V55Z"/><path class="cls-1" d="M19.16,58.81h-.78a.3.3,0,0,1-.21-.07.37.37,0,0,1-.13-.17l-.69-1.78H14l-.69,1.78a.38.38,0,0,1-.12.17.31.31,0,0,1-.21.07h-.78l3-7.38h1Zm-2.08-2.74-1.16-3c0-.09-.07-.2-.11-.32s-.07-.24-.11-.37a7.15,7.15,0,0,1-.22.69l-1.16,3Z"/><path class="cls-1" d="M24.94,58v.81H20.39V51.43h4.55v.81H21.39v2.45h2.87v.79H21.39V58Z"/><path class="cls-1" d="M30.37,52.58a.4.4,0,0,1-.1.12.28.28,0,0,1-.13,0,.37.37,0,0,1-.21-.09l-.29-.19a1.91,1.91,0,0,0-.43-.2,1.82,1.82,0,0,0-.61-.09,1.78,1.78,0,0,0-.59.09,1.23,1.23,0,0,0-.42.25.93.93,0,0,0-.26.36,1.13,1.13,0,0,0-.09.45.86.86,0,0,0,.15.52,1.34,1.34,0,0,0,.4.34,3,3,0,0,0,.57.25l.65.22c.22.08.44.16.65.26a1.92,1.92,0,0,1,.56.36,1.54,1.54,0,0,1,.41.53,1.73,1.73,0,0,1,.15.77,2.53,2.53,0,0,1-.17.91,2.15,2.15,0,0,1-.48.74,2.21,2.21,0,0,1-.78.49,2.8,2.8,0,0,1-1,.18A3.22,3.22,0,0,1,27,58.63a3.15,3.15,0,0,1-1-.7l.29-.48a.43.43,0,0,1,.1-.09.2.2,0,0,1,.13,0,.37.37,0,0,1,.16,0l.19.14a1.8,1.8,0,0,0,.25.18,1.33,1.33,0,0,0,.31.18,2.19,2.19,0,0,0,.41.14,2.59,2.59,0,0,0,.51.05A1.81,1.81,0,0,0,29,58a1.21,1.21,0,0,0,.47-.27,1.19,1.19,0,0,0,.3-.43,1.35,1.35,0,0,0,.1-.55,1,1,0,0,0-.15-.55,1.23,1.23,0,0,0-.4-.35,2.72,2.72,0,0,0-.57-.25l-.65-.21c-.22-.07-.43-.15-.65-.24a1.92,1.92,0,0,1-.56-.36,1.59,1.59,0,0,1-.4-.55,2.05,2.05,0,0,1-.15-.83A2,2,0,0,1,26.9,52a2.28,2.28,0,0,1,.72-.46,2.66,2.66,0,0,1,1-.17,3.11,3.11,0,0,1,1.13.2,2.52,2.52,0,0,1,.89.57Z"/><path class="cls-1" d="M37,58v.81H32.44V51.43H37v.81H33.44v2.45h2.88v.79H33.44V58Z"/><path class="cls-1" d="M44.63,51.43v7.38h-.5a.42.42,0,0,1-.2,0,.64.64,0,0,1-.15-.14L39.5,53.07a2.11,2.11,0,0,1,0,.25c0,.08,0,.16,0,.23v5.26h-.88V51.43h.63l.08,0,.07,0a.36.36,0,0,1,.08.09l4.27,5.56c0-.09,0-.18,0-.26s0-.17,0-.24V51.43Z"/><path class="cls-1" d="M51.77,52.27H49.38v6.54h-1V52.27H46v-.84h5.78Z"/><path class="cls-1" d="M86.83,51.43a4,4,0,0,1,1.22.16,2.35,2.35,0,0,1,.86.46,1.83,1.83,0,0,1,.51.72,2.58,2.58,0,0,1,.16.94,2.44,2.44,0,0,1-.18.95,2,2,0,0,1-.52.73,2.58,2.58,0,0,1-.86.49,3.93,3.93,0,0,1-1.19.17H85.65v2.76h-1V51.43Zm0,3.82a2.21,2.21,0,0,0,.76-.11,1.43,1.43,0,0,0,.55-.32,1.27,1.27,0,0,0,.34-.48,1.81,1.81,0,0,0,.11-.63,1.42,1.42,0,0,0-.44-1.1,1.93,1.93,0,0,0-1.32-.39H85.65v3Z"/><path class="cls-1" d="M94,58a2.14,2.14,0,0,0,.82-.16,1.78,1.78,0,0,0,.61-.43,2.09,2.09,0,0,0,.38-.67,2.53,2.53,0,0,0,.13-.85V51.43h1v4.48a3.54,3.54,0,0,1-.2,1.19,2.81,2.81,0,0,1-.58.94,2.55,2.55,0,0,1-.93.63,3.38,3.38,0,0,1-2.45,0,2.73,2.73,0,0,1-.93-.63,2.66,2.66,0,0,1-.58-.94,3.31,3.31,0,0,1-.2-1.19V51.43h1v4.48a2.57,2.57,0,0,0,.13.85,1.94,1.94,0,0,0,.38.66,1.8,1.8,0,0,0,.61.44A2.19,2.19,0,0,0,94,58Z"/><path class="cls-1" d="M103.12,58v.84H98.93V51.43h1V58Z"/><path class="cls-1" d="M109.58,51.43l-3,7.38h-.9l-3-7.38h.8a.38.38,0,0,1,.22.06.66.66,0,0,1,.12.17l2.08,5.21c.05.12.09.25.13.38a3.17,3.17,0,0,1,.12.44c0-.15.07-.3.11-.44l.12-.38,2.08-5.21a.42.42,0,0,1,.12-.16.32.32,0,0,1,.22-.07Z"/><path class="cls-1" d="M111.81,58.81h-1V51.43h1Z"/><path class="cls-1" d="M119.93,51.43v7.38h-.5a.42.42,0,0,1-.2,0,.94.94,0,0,1-.16-.14l-4.27-5.56a2.11,2.11,0,0,1,0,.25v5.49H114V51.43h.63l.08,0,.07,0a.36.36,0,0,1,.08.09l4.27,5.56c0-.09,0-.18,0-.26s0-.17,0-.24V51.43Z"/><path class="cls-1" d="M128.07,58.81h-.77a.28.28,0,0,1-.21-.07.37.37,0,0,1-.13-.17l-.69-1.78H123l-.69,1.78a.38.38,0,0,1-.12.17.32.32,0,0,1-.22.07h-.77l3-7.38h1ZM126,56.07l-1.16-3c0-.09-.07-.2-.1-.32a3.25,3.25,0,0,1-.11-.37,7.15,7.15,0,0,1-.22.69l-1.16,3Z"/><path class="cls-1" d="M134.76,58.81h-.89a.44.44,0,0,1-.4-.21L131.56,56a.64.64,0,0,0-.19-.18.8.8,0,0,0-.31-.05h-.76v3.08h-1V51.43h2.08a4.33,4.33,0,0,1,1.21.14,2.2,2.2,0,0,1,.84.41,1.62,1.62,0,0,1,.5.64,2.34,2.34,0,0,1,.16.85,2.15,2.15,0,0,1-.13.73,1.79,1.79,0,0,1-.36.61,2,2,0,0,1-.57.47,2.85,2.85,0,0,1-.76.28,1.24,1.24,0,0,1,.33.32ZM131.35,55a2.61,2.61,0,0,0,.77-.1,1.53,1.53,0,0,0,.55-.3,1.28,1.28,0,0,0,.34-.46,1.64,1.64,0,0,0,.11-.6,1.16,1.16,0,0,0-.43-1,2.13,2.13,0,0,0-1.3-.33H130.3V55Z"/></g></g></g></svg>