<svg xmlns="http://www.w3.org/2000/svg" viewBox="0 0 67.64 67.64"><defs><style>.cls-1{fill:#01cafa;}</style></defs><title>person</title><g id="Layer_2" data-name="Layer 2"><g id="Layer_7" data-name="Layer 7"><path id="emoji_simple_no_face_circle" class="cls-1" d="M33.82,0A33.82,33.82,0,1,0,67.64,33.82,33.82,33.82,0,0,0,33.82,0Zm0,60.88A27.06,27.06,0,1,1,60.88,33.82,27.09,27.09,0,0,1,33.82,60.88ZM13.53,27.06a6.77,6.77,0,1,1,6.76,6.76A6.77,6.77,0,0,1,13.53,27.06Zm27.06,0a6.77,6.77,0,1,1,6.76,6.76A6.77,6.77,0,0,1,40.59,27.06Z"/></g></g></svg>