<svg xmlns="http://www.w3.org/2000/svg" viewBox="0 0 29.87 29.87"><defs><style>.cls-1{fill:#01cafa;}</style></defs><title>settings</title><g id="Layer_2" data-name="Layer 2"><g id="dashboard"><g id="menu"><path id="settings" class="cls-1" d="M28.37,13.44H25.9c-.36,0-.85,0-.85-.38a6.76,6.76,0,0,0-1.39-4.25c-.24-.27-.17-.51.08-.76l1.75-1.66a1.42,1.42,0,0,0,0-2.06,1.49,1.49,0,0,0-2.11,0L21.63,6.11a.74.74,0,0,1-.94.09A10.42,10.42,0,0,0,17,4.69.74.74,0,0,1,16.43,4V1.49a1.5,1.5,0,0,0-3,0V4a.74.74,0,0,1-.61.72A10.34,10.34,0,0,0,9.18,6.2a.74.74,0,0,1-.95-.08L6.49,4.37A1.5,1.5,0,1,0,4.37,6.49L6.12,8.23a.72.72,0,0,1,.08.95,7.66,7.66,0,0,0-1.42,4c0,.36-.45.24-.81.24H1.49a1.5,1.5,0,0,0,0,3H4c.36,0,.79.13.86.48a9,9,0,0,0,1.37,3.4,1,1,0,0,1-.08,1.14L4.37,23.29a1.56,1.56,0,0,0,0,2.16,1.51,1.51,0,0,0,2.12,0l1.74-1.74a.75.75,0,0,1,.95-.07,10.34,10.34,0,0,0,3.65,1.51.75.75,0,0,1,.61.73v2.47a1.5,1.5,0,1,0,3,0V25.9a.76.76,0,0,1,.61-.73,10.42,10.42,0,0,0,3.65-1.51.74.74,0,0,1,.94.08l1.75,1.75a1.49,1.49,0,0,0,2.11-2.11l-1.75-1.75a.74.74,0,0,1-.08-.94,10.71,10.71,0,0,0,1.51-2.9c.12-.35.37-1.36.73-1.36h2.47a1.5,1.5,0,1,0,0-3ZM22.13,17A7.37,7.37,0,0,1,17,22.13a7.49,7.49,0,0,1-9.22-9.22,7.34,7.34,0,0,1,5.17-5.17A7.49,7.49,0,0,1,22.13,17Zm-5.7-2a1.5,1.5,0,1,1-1.5-1.49A1.5,1.5,0,0,1,16.43,14.93Z"/></g></g></g></svg>